<?xml version="1.0" standalone="no"?>
<!DOCTYPE svg PUBLIC "-//W3C//DTD SVG 20010904//EN"
 "http://www.w3.org/TR/2001/REC-SVG-20010904/DTD/svg10.dtd">
<svg version="1.0" xmlns="http://www.w3.org/2000/svg"
 width="1105.000000pt" height="1105.000000pt" viewBox="0 0 1105.000000 1105.000000"
 preserveAspectRatio="xMidYMid meet">
<metadata>
Created by potrace 1.11, written by Peter Selinger 2001-2013
</metadata>
<g transform="translate(0.000000,1105.000000) scale(0.100000,-0.100000)"
fill="#000000" stroke="none">
<path d="M5299 11023 c-9 -7 -25 -34 -35 -60 -9 -27 -59 -148 -111 -269 -84
-200 -114 -277 -188 -484 -49 -139 -300 -780 -370 -945 -79 -186 -288 -718
-435 -1105 -89 -234 -417 -1054 -450 -1125 -5 -11 -18 -42 -28 -70 -52 -137
-214 -552 -222 -570 -5 -11 -29 -70 -54 -131 -54 -134 -146 -345 -157 -360
-12 -15 -88 -10 -209 14 -277 55 -410 67 -735 67 -246 0 -340 -5 -505 -29 -99
-15 -120 -18 -180 -31 -14 -3 -35 -7 -48 -10 -174 -33 -447 -144 -610 -249
-300 -192 -566 -524 -618 -767 -2 -13 -9 -44 -14 -69 -10 -48 -7 -254 4 -305
21 -94 96 -264 136 -307 11 -12 20 -25 20 -28 0 -12 108 -128 181 -195 151
-139 420 -308 584 -368 162 -59 229 -80 332 -106 190 -48 357 -75 595 -97 62
-5 77 -10 81 -25 3 -10 -29 -101 -70 -201 -170 -417 -421 -1048 -561 -1413
-128 -331 -321 -815 -367 -920 -35 -79 -135 -329 -135 -337 0 -5 338 -7 789
-6 782 3 790 3 818 24 21 15 42 55 80 150 28 71 126 318 218 549 92 231 177
445 190 475 42 96 360 868 425 1030 51 126 204 493 240 575 28 63 103 264 131
352 l34 102 80 41 c44 22 123 63 175 91 52 28 142 76 200 106 283 150 466 252
695 386 94 55 186 110 206 121 20 12 61 35 90 52 30 17 119 69 199 115 80 47
179 103 220 126 41 22 95 52 120 65 194 107 265 145 405 214 137 69 200 98
310 144 43 18 113 43 170 61 33 11 71 28 85 37 14 10 34 21 45 25 18 6 18 6 3
-5 -9 -7 -24 -17 -33 -23 -14 -9 -11 -23 30 -140 102 -288 336 -877 443 -1115
65 -143 94 -227 105 -305 l5 -30 -52 0 c-47 1 -337 92 -526 165 -30 11 -75 28
-100 37 -155 54 -537 215 -776 327 -169 79 -266 104 -403 104 -253 0 -483 -86
-628 -235 -86 -88 -82 -148 15 -197 55 -28 252 -112 547 -236 456 -190 1010
-374 1385 -460 206 -47 257 -57 445 -86 17 -2 41 -7 55 -9 14 -3 36 -7 50 -10
14 -3 59 -12 100 -20 76 -15 101 -20 155 -31 28 -5 34 -15 84 -137 176 -430
228 -555 242 -579 5 -10 9 -22 9 -28 0 -6 10 -32 21 -58 36 -80 47 -105 69
-162 12 -30 27 -68 34 -85 17 -39 29 -67 83 -200 105 -257 136 -332 153 -375
29 -74 287 -707 331 -813 25 -57 52 -106 67 -117 24 -20 43 -20 803 -20 605 0
779 3 779 12 0 10 -287 754 -325 843 -7 17 -76 192 -154 390 -77 198 -203 514
-280 703 -177 433 -274 697 -265 724 7 22 37 37 157 74 600 189 969 495 1080
894 61 220 51 529 -24 773 -20 64 -112 258 -137 288 -6 8 -35 43 -63 79 -220
278 -619 514 -1074 635 -94 25 -277 60 -357 70 -26 3 -62 7 -80 9 -99 14 -295
26 -469 30 -153 4 -209 17 -209 47 0 11 -54 154 -121 317 -67 163 -150 369
-186 457 -36 88 -71 174 -78 190 -32 73 -112 273 -225 560 -67 171 -128 324
-135 340 -7 17 -32 80 -55 140 -23 61 -45 119 -50 130 -5 11 -53 133 -105 270
-134 347 -325 836 -335 860 -5 11 -69 171 -141 355 -73 184 -168 423 -211 530
-44 107 -80 200 -82 205 -2 6 -8 21 -13 35 -6 14 -55 134 -108 268 -54 133
-105 252 -114 263 -17 21 -23 21 -545 23 -408 1 -533 -2 -547 -11z m582 -2454
c10 -20 83 -220 115 -319 8 -25 19 -54 24 -65 4 -11 32 -90 60 -175 29 -85 56
-164 60 -175 5 -11 30 -81 55 -155 42 -121 83 -238 231 -662 79 -229 131 -379
222 -643 49 -143 119 -340 156 -439 63 -167 66 -179 51 -196 -23 -25 -100 -62
-230 -111 -320 -119 -789 -335 -1145 -526 -41 -22 -115 -62 -165 -88 -264
-140 -455 -247 -580 -325 -77 -47 -165 -100 -195 -117 -61 -35 -166 -76 -179
-71 -7 2 26 113 54 183 14 34 174 416 205 489 30 68 39 126 20 126 -5 0 -15
10 -21 23 l-11 22 21 -22 c29 -30 39 -29 46 5 4 15 15 52 26 82 11 30 63 172
116 315 207 567 406 1124 593 1655 39 113 80 229 91 258 46 125 62 170 139
392 141 401 203 560 221 560 5 0 13 -10 20 -21z m1989 -2593 c0 -2 -11 -6 -25
-8 -13 -3 -22 -1 -19 3 5 9 44 13 44 5z m-105 -15 c-6 -5 -28 -12 -50 -15
l-40 -6 45 14 c57 18 56 18 45 7z m42 3 c-3 -3 -12 -4 -19 -1 -8 3 -5 6 6 6
11 1 17 -2 13 -5z m-144 -31 c-7 -2 -19 -2 -25 0 -7 3 -2 5 12 5 14 0 19 -2
13 -5z m-56 -9 c-3 -3 -12 -4 -19 -1 -8 3 -5 6 6 6 11 1 17 -2 13 -5z m-447
-120 c-66 -21 -162 -42 -135 -29 22 10 181 54 195 54 8 0 -19 -11 -60 -25z
m-153 -40 c-3 -3 -12 -4 -19 -1 -8 3 -5 6 6 6 11 1 17 -2 13 -5z m1678 -260
c70 -6 79 -8 125 -19 19 -5 38 -9 42 -9 3 -1 10 -4 14 -8 4 -5 17 -8 29 -8 12
0 25 -3 29 -7 4 -5 11 -8 14 -8 16 -1 108 -40 113 -48 4 -5 11 -7 17 -4 5 4
17 -2 27 -13 10 -11 24 -20 30 -20 7 0 29 -11 49 -25 20 -13 36 -22 36 -19 0
2 10 -4 22 -16 12 -11 25 -20 28 -20 4 0 18 -9 31 -20 13 -11 37 -30 52 -42
15 -13 41 -35 56 -50 16 -15 31 -25 34 -22 3 3 8 -4 12 -15 3 -11 15 -23 26
-26 10 -4 19 -10 19 -15 0 -4 24 -33 54 -64 29 -31 51 -56 49 -56 -4 0 11 -19
40 -51 9 -10 17 -23 17 -28 0 -5 10 -16 23 -25 12 -9 15 -14 7 -9 -8 4 0 -10
18 -32 17 -22 32 -43 32 -48 0 -5 9 -21 20 -37 11 -15 17 -30 13 -34 -3 -3 -1
-6 5 -6 7 0 11 -3 10 -7 -1 -5 3 -18 10 -30 7 -13 10 -23 6 -23 -3 0 -2 -6 3
-12 6 -7 14 -26 18 -43 5 -16 9 -34 11 -40 35 -122 37 -377 4 -500 -11 -41
-20 -81 -24 -101 -1 -6 -10 -23 -19 -37 -10 -15 -14 -27 -11 -27 4 0 -1 -9
-11 -20 -10 -11 -15 -20 -10 -20 4 0 -3 -9 -16 -21 -13 -11 -17 -17 -9 -13 8
4 -5 -13 -30 -37 -25 -25 -47 -44 -49 -43 -2 2 -15 -8 -29 -22 -15 -13 -32
-24 -39 -24 -6 0 -13 -5 -15 -10 -2 -6 -13 -12 -26 -13 -12 0 -22 -5 -22 -10
0 -4 -4 -5 -10 -2 -5 3 -10 2 -10 -2 0 -5 -10 -10 -22 -10 -13 -1 -24 -7 -26
-13 -2 -5 -7 -8 -11 -6 -4 3 -27 -2 -51 -10 -24 -8 -46 -11 -50 -7 -4 4 -60
141 -125 303 -64 162 -123 309 -130 325 -7 17 -20 50 -30 75 -9 25 -23 59 -30
75 -7 17 -36 91 -65 165 -29 74 -58 149 -65 165 -7 17 -34 86 -60 155 -26 69
-56 145 -66 169 -11 24 -19 47 -19 51 0 5 -10 30 -22 57 -12 26 -22 50 -22 53
-5 28 -31 90 -38 90 -5 0 -7 4 -4 8 3 5 -13 55 -34 111 -45 115 -47 125 -22
117 9 -3 44 -8 77 -12z m-4310 -14 c3 -6 -1 -7 -9 -4 -18 7 -21 14 -7 14 6 0
13 -4 16 -10z m-2100 -14 c28 -2 73 -7 100 -10 115 -14 133 -17 265 -47 25 -5
54 -11 65 -13 11 -2 32 -9 48 -15 15 -6 27 -8 27 -5 0 4 7 0 17 -7 9 -8 17
-12 17 -10 1 2 28 -4 61 -14 33 -10 63 -18 68 -17 4 1 7 -3 7 -9 0 -5 4 -8 9
-5 5 3 18 -2 29 -12 20 -17 20 -17 -31 -172 -29 -85 -55 -159 -58 -165 -4 -5
-28 -64 -53 -130 -26 -66 -51 -129 -56 -140 -48 -107 -214 -532 -271 -693
l-22 -62 -66 5 c-77 7 -115 12 -153 19 -16 3 -38 8 -50 10 -23 5 -50 11 -90
22 -13 3 -29 6 -35 6 -7 1 -13 4 -13 8 0 4 -7 7 -15 8 -8 1 -22 3 -30 4 -8 1
-15 5 -15 9 0 7 -49 24 -62 21 -5 -1 -8 3 -8 8 0 5 -3 9 -7 8 -11 -3 -93 40
-117 61 -11 9 -16 10 -12 3 5 -7 -23 9 -62 37 -39 27 -72 47 -75 44 -3 -2 -10
5 -17 16 -6 12 -15 21 -20 21 -5 0 -32 23 -60 50 -28 28 -54 50 -56 50 -8 0
-93 90 -85 90 3 1 -4 6 -16 13 -12 7 -22 14 -22 17 0 16 -14 39 -22 34 -5 -3
-12 3 -16 13 -4 10 -15 27 -25 37 -10 11 -18 26 -18 33 0 7 -4 13 -10 13 -5 0
-9 3 -8 8 1 4 -6 22 -15 40 -10 17 -15 32 -11 32 4 0 2 6 -4 13 -6 6 -10 17
-11 22 0 6 -3 34 -7 63 -3 29 -6 65 -7 80 0 34 18 173 23 180 2 1 4 7 5 12 1
6 3 12 4 15 0 3 1 7 1 10 0 17 94 181 115 201 14 13 23 24 20 24 -4 0 0 7 9
15 8 8 20 15 27 15 7 0 9 3 6 7 -7 6 55 53 71 53 5 0 21 9 34 20 14 10 28 16
32 13 3 -3 6 -1 6 6 0 7 4 10 9 6 5 -3 12 -1 16 5 4 6 11 8 16 5 5 -4 15 -3
21 1 7 5 19 9 28 10 63 8 125 17 127 18 5 4 398 -3 448 -8z m1808 -543 c-7 -2
-19 -2 -25 0 -7 3 -2 5 12 5 14 0 19 -2 13 -5z m-140 -10 c-7 -2 -21 -2 -30 0
-10 3 -4 5 12 5 17 0 24 -2 18 -5z m65 0 c-10 -2 -26 -2 -35 0 -10 3 -2 5 17
5 19 0 27 -2 18 -5z m-1281 -999 c-8 -9 -117 -13 -136 -6 -13 4 10 8 59 8 45
1 79 0 77 -2z m5710 -350 c-3 -3 -12 -4 -19 -1 -8 3 -5 6 6 6 11 1 17 -2 13
-5z m-5630 -110 c-3 -3 -12 -4 -19 -1 -8 3 -5 6 6 6 11 1 17 -2 13 -5z m6695
-273 c5 -4 -8 -5 -27 -3 -19 2 -35 8 -35 12 0 10 51 3 62 -9z m-393 -66 c-3
-2 -23 -7 -45 -10 -21 -4 -50 -8 -64 -11 -14 -2 -65 -6 -115 -8 -80 -4 -84 -4
-30 4 33 5 91 12 129 16 38 4 81 10 95 14 25 7 39 5 30 -5z m-805 -39 c71 -3
132 -9 135 -12 5 -5 -238 0 -461 9 -15 0 -25 3 -23 6 4 7 165 6 349 -3z m486
4 c0 -5 -5 -10 -11 -10 -5 0 -7 5 -4 10 3 6 8 10 11 10 2 0 4 -4 4 -10z m-47
-7 c-13 -2 -33 -2 -45 0 -13 2 -3 4 22 4 25 0 35 -2 23 -4z m-245 -10 c-10 -2
-26 -2 -35 0 -10 3 -2 5 17 5 19 0 27 -2 18 -5z"/>
</g>
</svg>
